<svg width="144" height="145" viewBox="0 0 144 145" fill="none" xmlns="http://www.w3.org/2000/svg">
<mask id="mask0_1798_466" style="mask-type:alpha" maskUnits="userSpaceOnUse" x="0" y="0" width="144" height="145">
<rect y="0.666504" width="144" height="144" fill="#D9D9D9"/>
</mask>
<g mask="url(#mask0_1798_466)">
<path d="M13 73.1665C13 43.067 37.4005 18.6665 67.5 18.6665H76.5C106.6 18.6665 131 43.067 131 73.1665V107.667C131 118.712 122.046 127.667 111 127.667H33C21.9543 127.667 13 118.712 13 107.667V73.1665Z" fill="#FBA301"/>
<path d="M72.28 70.0265C72.28 68.9598 72.6533 68.0398 73.4 67.2665C74.1733 66.5198 75.08 66.1465 76.12 66.1465C77.1867 66.1465 78.0933 66.5198 78.84 67.2665C79.6133 68.0398 80 68.9598 80 70.0265C80 71.0665 79.6133 71.9598 78.84 72.7065C78.0933 73.4798 77.1867 73.8665 76.12 73.8665C75.4267 73.8665 74.7867 73.6932 74.2 73.3465C73.6133 72.9998 73.1467 72.5332 72.8 71.9465C72.4533 71.3865 72.28 70.7465 72.28 70.0265ZM58.52 70.0265C58.52 68.9598 58.8933 68.0398 59.64 67.2665C60.4133 66.5198 61.32 66.1465 62.36 66.1465C63.4267 66.1465 64.3333 66.5198 65.08 67.2665C65.8533 68.0398 66.24 68.9598 66.24 70.0265C66.24 71.0665 65.8533 71.9598 65.08 72.7065C64.3333 73.4798 63.4267 73.8665 62.36 73.8665C61.6667 73.8665 61.0267 73.6932 60.44 73.3465C59.8533 72.9998 59.3867 72.5332 59.04 71.9465C58.6933 71.3865 58.52 70.7465 58.52 70.0265ZM59 76.6906L73.48 76.6906C75.3467 76.6906 76.8133 77.2239 77.88 78.2906C78.9467 79.3572 79.48 80.8372 79.48 82.7306L79.48 88.6906L74.44 88.6906L74.44 84.2506C74.44 83.8772 74.3067 83.5572 74.04 83.2906C73.8 83.0239 73.48 82.8906 73.08 82.8906L59 82.8906L59 76.6906Z" fill="#282828"/>
</g>
</svg>
