<svg width="145" height="145" viewBox="0 0 145 145" fill="none" xmlns="http://www.w3.org/2000/svg">
<mask id="mask0_1798_472" style="mask-type:alpha" maskUnits="userSpaceOnUse" x="0" y="0" width="145" height="145">
<rect x="0.75" y="0.333496" width="144" height="144" fill="#D9D9D9"/>
</mask>
<g mask="url(#mask0_1798_472)">
<path d="M58.25 13.4164C66.9132 8.41468 77.5868 8.41468 86.25 13.4164L116.707 31.0006C125.37 36.0023 130.707 45.2459 130.707 55.2493V90.4177C130.707 100.421 125.37 109.665 116.707 114.666L86.25 132.251C77.5868 137.252 66.9132 137.252 58.25 132.251L27.7933 114.666C19.1301 109.665 13.7933 100.421 13.7933 90.4177V55.2493C13.7933 45.2459 19.1301 36.0023 27.7933 31.0006L58.25 13.4164Z" fill="#5BEBFF"/>
<path d="M72.03 63.6935C72.03 62.6268 72.4033 61.7068 73.15 60.9335C73.9233 60.1868 74.83 59.8135 75.87 59.8135C76.9367 59.8135 77.8433 60.1868 78.59 60.9335C79.3633 61.7068 79.75 62.6268 79.75 63.6935C79.75 64.7335 79.3633 65.6268 78.59 66.3735C77.8433 67.1468 76.9367 67.5335 75.87 67.5335C75.1767 67.5335 74.5367 67.3602 73.95 67.0135C73.3633 66.6668 72.8967 66.2002 72.55 65.6135C72.2033 65.0535 72.03 64.4135 72.03 63.6935ZM58.27 63.6935C58.27 62.6268 58.6433 61.7068 59.39 60.9335C60.1633 60.1868 61.07 59.8135 62.11 59.8135C63.1767 59.8135 64.0833 60.1868 64.83 60.9335C65.6033 61.7068 65.99 62.6268 65.99 63.6935C65.99 64.7335 65.6033 65.6268 64.83 66.3735C64.0833 67.1468 63.1767 67.5335 62.11 67.5335C61.4167 67.5335 60.7767 67.3602 60.19 67.0135C59.6033 66.6668 59.1367 66.2002 58.79 65.6135C58.4433 65.0535 58.27 64.4135 58.27 63.6935ZM58.75 78.1176C58.75 76.5442 59.11 75.1176 59.83 73.8376C60.5767 72.5576 61.5633 71.5309 62.79 70.7576C64.0433 70.0109 65.4567 69.6376 67.03 69.6376C68.2033 69.6376 69.2967 69.8909 70.31 70.3976C71.35 70.9309 72.2433 71.6376 72.99 72.5176C73.71 71.6642 74.5633 70.9842 75.55 70.4776C76.5367 69.9976 77.5767 69.7576 78.67 69.7576C80.2167 69.7576 81.59 70.1309 82.79 70.8776C84.0167 71.6242 84.9767 72.6242 85.67 73.8776C86.39 75.1309 86.75 76.5176 86.75 78.0376L86.75 89.8376L81.15 89.8376L81.15 79.0776C81.15 78.5709 81.03 78.1042 80.79 77.6776C80.55 77.2509 80.23 76.9042 79.83 76.6376C79.43 76.3976 78.9633 76.2776 78.43 76.2776C77.9233 76.2776 77.4567 76.3976 77.03 76.6376C76.63 76.9042 76.31 77.2509 76.07 77.6776C75.8567 78.1042 75.75 78.5709 75.75 79.0776L75.75 88.4776L70.15 88.4776L70.15 79.2776C70.15 78.7176 70.0167 78.2109 69.75 77.7576C69.4833 77.3042 69.1367 76.9442 68.71 76.6776C68.2833 76.4109 67.79 76.2776 67.23 76.2776C66.6967 76.2776 66.2033 76.4109 65.75 76.6776C65.3233 76.9442 64.99 77.3042 64.75 77.7576C64.51 78.2109 64.39 78.7176 64.39 79.2776L64.39 89.8376L58.75 89.8376L58.75 78.1176Z" fill="#282828"/>
</g>
</svg>
