<svg width="145" height="144" viewBox="0 0 145 144" fill="none" xmlns="http://www.w3.org/2000/svg">
<mask id="mask0_1798_463" style="mask-type:alpha" maskUnits="userSpaceOnUse" x="0" y="0" width="145" height="144">
<rect x="0.5" width="144" height="144" fill="#D9D9D9"/>
</mask>
<g mask="url(#mask0_1798_463)">
<rect x="19.5" y="64" width="106" height="60" rx="29" fill="#FF6767"/>
<rect x="11.5" y="20" width="122" height="60" rx="29" fill="#FF6767"/>
<path d="M82.5 81.08C82.5 82.6533 82.14 84.08 81.42 85.36C80.6733 86.64 79.6867 87.6667 78.46 88.44C77.2067 89.1867 75.7933 89.56 74.22 89.56C73.0467 89.56 71.9533 89.3067 70.94 88.8C69.9 88.2667 69.0067 87.56 68.26 86.68C67.54 87.5333 66.6867 88.2133 65.7 88.72C64.7133 89.2 63.6733 89.44 62.58 89.44C61.0333 89.44 59.66 89.0667 58.46 88.32C57.2333 87.5733 56.2733 86.5733 55.58 85.32C54.86 84.0667 54.5 82.68 54.5 81.16L54.5 69.36L60.1 69.36L60.1 80.12C60.1 80.6267 60.22 81.0933 60.46 81.52C60.7 81.9467 61.02 82.2933 61.42 82.56C61.82 82.8 62.2867 82.92 62.82 82.92C63.3267 82.92 63.7933 82.8 64.22 82.56C64.62 82.2933 64.94 81.9467 65.18 81.52C65.3933 81.0933 65.5 80.6267 65.5 80.12L65.5 70.72L71.1 70.72L71.1 79.92C71.1 80.48 71.2333 80.9867 71.5 81.44C71.7667 81.8933 72.1133 82.2533 72.54 82.52C72.9667 82.7867 73.46 82.92 74.02 82.92C74.5533 82.92 75.0467 82.7867 75.5 82.52C75.9267 82.2533 76.26 81.8933 76.5 81.44C76.74 80.9867 76.86 80.48 76.86 79.92L76.86 69.36L82.5 69.36L82.5 81.08ZM69.22 63.2369C69.22 64.3035 68.8467 65.2235 68.1 65.9969C67.3267 66.7435 66.42 67.1169 65.38 67.1169C64.3133 67.1169 63.4067 66.7435 62.66 65.9969C61.8867 65.2235 61.5 64.3035 61.5 63.2369C61.5 62.1969 61.8867 61.3035 62.66 60.5569C63.4067 59.7835 64.3133 59.3969 65.38 59.3969C66.0733 59.3969 66.7133 59.5702 67.3 59.9169C67.8867 60.2635 68.3533 60.7302 68.7 61.3169C69.0467 61.8769 69.22 62.5169 69.22 63.2369ZM82.98 63.2369C82.98 64.3035 82.6067 65.2235 81.86 65.9969C81.0867 66.7435 80.18 67.1169 79.14 67.1169C78.0733 67.1169 77.1667 66.7435 76.42 65.9969C75.6467 65.2235 75.26 64.3035 75.26 63.2369C75.26 62.1969 75.6467 61.3035 76.42 60.5569C77.1667 59.7835 78.0733 59.3969 79.14 59.3969C79.8333 59.3969 80.4733 59.5702 81.06 59.9169C81.6467 60.2635 82.1133 60.7302 82.46 61.3169C82.8067 61.8769 82.98 62.5169 82.98 63.2369Z" fill="#282828"/>
</g>
</svg>
