<svg width="145" height="145" viewBox="0 0 145 145" fill="none" xmlns="http://www.w3.org/2000/svg">
<mask id="mask0_1798_471" style="mask-type:alpha" maskUnits="userSpaceOnUse" x="0" y="0" width="145" height="145">
<rect x="0.5" y="0.333496" width="144" height="144" fill="#D9D9D9"/>
</mask>
<g mask="url(#mask0_1798_471)">
<rect x="13.5" y="16.3335" width="118" height="38" rx="19" fill="#9B6CFF"/>
<rect x="13.5" y="54.3335" width="118" height="37" rx="18.5" fill="#9B6CFF"/>
<rect x="13.5" y="91.3335" width="118" height="38" rx="19" fill="#9B6CFF"/>
<path d="M71.78 64.6935C71.78 63.6268 72.1533 62.7068 72.9 61.9335C73.6733 61.1868 74.58 60.8135 75.62 60.8135C76.6867 60.8135 77.5933 61.1868 78.34 61.9335C79.1133 62.7068 79.5 63.6268 79.5 64.6935C79.5 65.7335 79.1133 66.6268 78.34 67.3735C77.5933 68.1468 76.6867 68.5335 75.62 68.5335C74.9267 68.5335 74.2867 68.3602 73.7 68.0135C73.1133 67.6668 72.6467 67.2002 72.3 66.6135C71.9533 66.0535 71.78 65.4135 71.78 64.6935ZM58.02 64.6935C58.02 63.6268 58.3933 62.7068 59.14 61.9335C59.9133 61.1868 60.82 60.8135 61.86 60.8135C62.9267 60.8135 63.8333 61.1868 64.58 61.9335C65.3533 62.7068 65.74 63.6268 65.74 64.6935C65.74 65.7335 65.3533 66.6268 64.58 67.3735C63.8333 68.1468 62.9267 68.5335 61.86 68.5335C61.1667 68.5335 60.5267 68.3602 59.94 68.0135C59.3533 67.6668 58.8867 67.2002 58.54 66.6135C58.1933 66.0535 58.02 65.4135 58.02 64.6935ZM62.58 71.0376L67.98 71.0376L72.5 83.9176L77.02 71.0376L82.42 71.0376L75.26 90.3176L69.74 90.3176L62.58 71.0376Z" fill="#282828"/>
</g>
</svg>
