<svg width="145" height="145" viewBox="0 0 145 145" fill="none" xmlns="http://www.w3.org/2000/svg">
<mask id="mask0_1798_469" style="mask-type:alpha" maskUnits="userSpaceOnUse" x="0" y="0" width="145" height="145">
<rect x="0.25" y="0.666504" width="144" height="144" fill="#D9D9D9"/>
</mask>
<g mask="url(#mask0_1798_469)">
<path d="M60.1256 20.6665C65.5143 11.3332 78.9858 11.3332 84.3744 20.6665L132.006 103.167C137.394 112.5 130.659 124.167 119.881 124.167H24.6186C13.8414 124.167 7.10564 112.5 12.4942 103.167L60.1256 20.6665Z" fill="#01AEFB"/>
<path d="M82.73 90.1065C82.73 91.9198 82.2633 93.5198 81.33 94.9065C80.3967 96.2932 79.1433 97.3732 77.57 98.1465C75.97 98.9198 74.17 99.3065 72.17 99.3065C70.09 99.3065 68.2367 98.8532 66.61 97.9465C64.9567 97.0398 63.65 95.7598 62.69 94.1065C61.73 92.4265 61.25 90.4532 61.25 88.1865C61.25 85.8932 61.73 83.9465 62.69 82.3465C63.6233 80.7198 64.9167 79.4798 66.57 78.6265C68.1967 77.7465 70.0233 77.3065 72.05 77.3065L82.25 77.3065L82.25 83.3865L78.97 83.3865L78.97 83.5465C79.69 83.9198 80.3433 84.3998 80.93 84.9865C81.49 85.5732 81.93 86.2932 82.25 87.1465C82.57 87.9732 82.73 88.9598 82.73 90.1065ZM77.37 88.2665C77.37 87.3332 77.1433 86.5198 76.69 85.8265C76.21 85.1065 75.5567 84.5598 74.73 84.1865C73.9033 83.8132 72.9833 83.6265 71.97 83.6265C70.9833 83.6265 70.09 83.8132 69.29 84.1865C68.49 84.5598 67.8633 85.1065 67.41 85.8265C66.93 86.5198 66.69 87.3332 66.69 88.2665C66.69 89.2265 66.93 90.0665 67.41 90.7865C67.8633 91.5065 68.49 92.0532 69.29 92.4265C70.09 92.7998 70.9833 92.9865 71.97 92.9865C72.9833 92.9865 73.9033 92.7998 74.73 92.4265C75.5567 92.0532 76.21 91.5065 76.69 90.7865C77.1433 90.0665 77.37 89.2265 77.37 88.2665ZM68.97 70.4815C68.97 71.5482 68.5967 72.4682 67.85 73.2415C67.0767 73.9882 66.17 74.3615 65.13 74.3615C64.0633 74.3615 63.1567 73.9882 62.41 73.2415C61.6367 72.4682 61.25 71.5482 61.25 70.4815C61.25 69.4415 61.6367 68.5482 62.41 67.8015C63.1567 67.0282 64.0633 66.6415 65.13 66.6415C65.8233 66.6415 66.4633 66.8148 67.05 67.1615C67.6367 67.5082 68.1033 67.9748 68.45 68.5615C68.7967 69.1215 68.97 69.7615 68.97 70.4815ZM82.73 70.4815C82.73 71.5482 82.3567 72.4682 81.61 73.2415C80.8367 73.9882 79.93 74.3615 78.89 74.3615C77.8233 74.3615 76.9167 73.9882 76.17 73.2415C75.3967 72.4682 75.01 71.5482 75.01 70.4815C75.01 69.4415 75.3967 68.5482 76.17 67.8015C76.9167 67.0282 77.8233 66.6415 78.89 66.6415C79.5833 66.6415 80.2233 66.8148 80.81 67.1615C81.3967 67.5082 81.8633 67.9748 82.21 68.5615C82.5567 69.1215 82.73 69.7615 82.73 70.4815Z" fill="#282828"/>
</g>
</svg>
