<svg width="144" height="145" viewBox="0 0 144 145" fill="none" xmlns="http://www.w3.org/2000/svg">
<mask id="mask0_1798_473" style="mask-type:alpha" maskUnits="userSpaceOnUse" x="0" y="0" width="144" height="145">
<rect y="0.333496" width="144" height="144" fill="#D9D9D9"/>
</mask>
<g mask="url(#mask0_1798_473)">
<rect x="13" y="18.3335" width="118" height="109" rx="29" fill="#13DA80"/>
<path d="M83 83.4135C83 84.9868 82.64 86.4135 81.92 87.6935C81.1733 88.9735 80.1867 90.0002 78.96 90.7735C77.7067 91.5202 76.2933 91.8935 74.72 91.8935C73.5467 91.8935 72.4533 91.6402 71.44 91.1335C70.4 90.6002 69.5067 89.8935 68.76 89.0135C68.04 89.8668 67.1867 90.5468 66.2 91.0535C65.2133 91.5335 64.1733 91.7735 63.08 91.7735C61.5333 91.7735 60.16 91.4002 58.96 90.6535C57.7333 89.9068 56.7733 88.9068 56.08 87.6535C55.36 86.4002 55 85.0135 55 83.4935L55 71.6935L60.6 71.6935L60.6 82.4535C60.6 82.9602 60.72 83.4268 60.96 83.8535C61.2 84.2802 61.52 84.6268 61.92 84.8935C62.32 85.1335 62.7867 85.2535 63.32 85.2535C63.8267 85.2535 64.2933 85.1335 64.72 84.8935C65.12 84.6268 65.44 84.2802 65.68 83.8535C65.8933 83.4268 66 82.9602 66 82.4535L66 73.0535L71.6 73.0535L71.6 82.2535C71.6 82.8135 71.7333 83.3202 72 83.7735C72.2667 84.2268 72.6133 84.5868 73.04 84.8535C73.4667 85.1202 73.96 85.2535 74.52 85.2535C75.0533 85.2535 75.5467 85.1202 76 84.8535C76.4267 84.5868 76.76 84.2268 77 83.7735C77.24 83.3202 77.36 82.8135 77.36 82.2535L77.36 71.6935L83 71.6935L83 83.4135ZM69.72 65.5704C69.72 66.637 69.3467 67.557 68.6 68.3304C67.8267 69.077 66.92 69.4504 65.88 69.4504C64.8133 69.4504 63.9067 69.077 63.16 68.3304C62.3867 67.557 62 66.637 62 65.5704C62 64.5304 62.3867 63.637 63.16 62.8904C63.9067 62.117 64.8133 61.7304 65.88 61.7304C66.5733 61.7304 67.2133 61.9037 67.8 62.2504C68.3867 62.597 68.8533 63.0637 69.2 63.6504C69.5467 64.2104 69.72 64.8504 69.72 65.5704ZM83.48 65.5704C83.48 66.637 83.1067 67.557 82.36 68.3304C81.5867 69.077 80.68 69.4504 79.64 69.4504C78.5733 69.4504 77.6667 69.077 76.92 68.3304C76.1467 67.557 75.76 66.637 75.76 65.5704C75.76 64.5304 76.1467 63.637 76.92 62.8904C77.6667 62.117 78.5733 61.7304 79.64 61.7304C80.3333 61.7304 80.9733 61.9037 81.56 62.2504C82.1467 62.597 82.6133 63.0637 82.96 63.6504C83.3067 64.2104 83.48 64.8504 83.48 65.5704Z" fill="#282828"/>
</g>
</svg>
