<svg width="144" height="144" viewBox="0 0 144 144" fill="none" xmlns="http://www.w3.org/2000/svg">
<mask id="mask0_1798_465" style="mask-type:alpha" maskUnits="userSpaceOnUse" x="0" y="0" width="144" height="144">
<rect width="144" height="144" fill="#D9D9D9"/>
</mask>
<g mask="url(#mask0_1798_465)">
<circle cx="72" cy="72" r="58" fill="#FD85FF"/>
<path d="M71.28 62.36C71.28 61.2933 71.6533 60.3733 72.4 59.6C73.1733 58.8533 74.08 58.48 75.12 58.48C76.1867 58.48 77.0933 58.8533 77.84 59.6C78.6133 60.3733 79 61.2933 79 62.36C79 63.4 78.6133 64.2933 77.84 65.04C77.0933 65.8133 76.1867 66.2 75.12 66.2C74.4267 66.2 73.7867 66.0267 73.2 65.68C72.6133 65.3333 72.1467 64.8667 71.8 64.28C71.4533 63.72 71.28 63.08 71.28 62.36ZM57.52 62.36C57.52 61.2933 57.8933 60.3733 58.64 59.6C59.4133 58.8533 60.32 58.48 61.36 58.48C62.4267 58.48 63.3333 58.8533 64.08 59.6C64.8533 60.3733 65.24 61.2933 65.24 62.36C65.24 63.4 64.8533 64.2933 64.08 65.04C63.3333 65.8133 62.4267 66.2 61.36 66.2C60.6667 66.2 60.0267 66.0267 59.44 65.68C58.8533 65.3333 58.3867 64.8667 58.04 64.28C57.6933 63.72 57.52 63.08 57.52 62.36ZM57.52 78.5441C57.52 77.3174 57.84 76.1974 58.48 75.1841C59.12 74.1707 59.9867 73.4774 61.08 73.1041L78.52 67.2641L78.52 74.0641L63.88 78.1841C63.7733 78.2374 63.6933 78.2907 63.64 78.3441C63.5867 78.4241 63.56 78.5041 63.56 78.5841C63.56 78.6907 63.5867 78.7707 63.64 78.8241C63.6933 78.9041 63.7733 78.9574 63.88 78.9841L78.52 83.1841L78.52 89.8241L61.08 83.9841C59.9867 83.6107 59.12 82.9174 58.48 81.9041C57.84 80.9174 57.52 79.7974 57.52 78.5441Z" fill="#282828"/>
</g>
</svg>
