<svg width="145" height="145" viewBox="0 0 145 145" fill="none" xmlns="http://www.w3.org/2000/svg">
<mask id="mask0_1798_468" style="mask-type:alpha" maskUnits="userSpaceOnUse" x="0" y="0" width="145" height="145">
<rect x="0.5" y="0.666504" width="144" height="144" fill="#D9D9D9"/>
</mask>
<g mask="url(#mask0_1798_468)">
<path d="M59.6226 16.5257C66.7727 8.58362 79.2273 8.58362 86.3774 16.5257L106.874 39.2926L129.641 59.7891C137.583 66.9392 137.583 79.3938 129.641 86.5439L106.874 107.04L86.3774 129.807C79.2273 137.749 66.7727 137.749 59.6226 129.807L39.1261 107.04L16.3592 86.5439C8.41712 79.3938 8.41712 66.9392 16.3592 59.7891L39.1261 39.2926L59.6226 16.5257Z" fill="#45F8A3"/>
<path d="M79.42 93.8265L74.02 93.8265L69.5 80.9465L64.98 93.8265L59.58 93.8265L66.74 74.5465L72.26 74.5465L79.42 93.8265ZM70.22 68.1378C70.22 69.2044 69.8467 70.1244 69.1 70.8978C68.3267 71.6444 67.42 72.0178 66.38 72.0178C65.3133 72.0178 64.4067 71.6444 63.66 70.8978C62.8867 70.1244 62.5 69.2044 62.5 68.1378C62.5 67.0978 62.8867 66.2044 63.66 65.4578C64.4067 64.6844 65.3133 64.2978 66.38 64.2978C67.0733 64.2978 67.7133 64.4711 68.3 64.8178C68.8867 65.1644 69.3533 65.6311 69.7 66.2178C70.0467 66.7778 70.22 67.4178 70.22 68.1378ZM83.98 68.1378C83.98 69.2044 83.6067 70.1244 82.86 70.8978C82.0867 71.6444 81.18 72.0178 80.14 72.0178C79.0733 72.0178 78.1667 71.6444 77.42 70.8978C76.6467 70.1244 76.26 69.2044 76.26 68.1378C76.26 67.0978 76.6467 66.2044 77.42 65.4578C78.1667 64.6844 79.0733 64.2978 80.14 64.2978C80.8333 64.2978 81.4733 64.4711 82.06 64.8178C82.6467 65.1644 83.1133 65.6311 83.46 66.2178C83.8067 66.7778 83.98 67.4178 83.98 68.1378Z" fill="#282828"/>
</g>
</svg>
