<svg width="145" height="145" viewBox="0 0 145 145" fill="none" xmlns="http://www.w3.org/2000/svg">
<mask id="mask0_1798_470" style="mask-type:alpha" maskUnits="userSpaceOnUse" x="0" y="0" width="145" height="145">
<rect x="0.25" y="0.333496" width="144" height="144" fill="#D9D9D9"/>
</mask>
<g mask="url(#mask0_1798_470)">
<path d="M15.25 108.016C15.25 56.8291 56.7456 15.3335 107.933 15.3335C119.706 15.3335 129.25 24.8775 129.25 36.6506V106.333C129.25 119.036 118.953 129.333 106.25 129.333H36.5671C24.794 129.333 15.25 119.79 15.25 108.016Z" fill="#B7FF44"/>
<path d="M76.53 64.6935C76.53 63.6268 76.9033 62.7068 77.65 61.9335C78.4233 61.1868 79.33 60.8135 80.37 60.8135C81.4367 60.8135 82.3433 61.1868 83.09 61.9335C83.8633 62.7068 84.25 63.6268 84.25 64.6935C84.25 65.7335 83.8633 66.6268 83.09 67.3735C82.3433 68.1468 81.4367 68.5335 80.37 68.5335C79.6767 68.5335 79.0367 68.3602 78.45 68.0135C77.8633 67.6668 77.3967 67.2002 77.05 66.6135C76.7033 66.0535 76.53 65.4135 76.53 64.6935ZM62.77 64.6935C62.77 63.6268 63.1433 62.7068 63.89 61.9335C64.6633 61.1868 65.57 60.8135 66.61 60.8135C67.6767 60.8135 68.5833 61.1868 69.33 61.9335C70.1033 62.7068 70.49 63.6268 70.49 64.6935C70.49 65.7335 70.1033 66.6268 69.33 67.3735C68.5833 68.1468 67.6767 68.5335 66.61 68.5335C65.9167 68.5335 65.2767 68.3602 64.69 68.0135C64.1033 67.6668 63.6367 67.2002 63.29 66.6135C62.9433 66.0535 62.77 65.4135 62.77 64.6935ZM62.77 80.8776C62.77 79.6509 63.09 78.5309 63.73 77.5176C64.37 76.5042 65.2367 75.8109 66.33 75.4376L83.77 69.5976L83.77 76.3976L69.13 80.5176C69.0233 80.5709 68.9433 80.6242 68.89 80.6776C68.8367 80.7576 68.81 80.8376 68.81 80.9176C68.81 81.0242 68.8367 81.1042 68.89 81.1576C68.9433 81.2376 69.0233 81.2909 69.13 81.3176L83.77 85.5176L83.77 92.1576L66.33 86.3176C65.2367 85.9442 64.37 85.2509 63.73 84.2376C63.09 83.2509 62.77 82.1309 62.77 80.8776Z" fill="#282828"/>
</g>
</svg>
