<svg width="145" height="144" viewBox="0 0 145 144" fill="none" xmlns="http://www.w3.org/2000/svg">
<mask id="mask0_1798_464" style="mask-type:alpha" maskUnits="userSpaceOnUse" x="0" y="0" width="145" height="144">
<rect x="0.75" width="144" height="144" fill="#D9D9D9"/>
</mask>
<g mask="url(#mask0_1798_464)">
<circle cx="46.25" cy="46.5" r="32.5" fill="#FF5A2D"/>
<circle cx="78.25" cy="82.5" r="32.5" fill="#FF5A2D"/>
<circle cx="46.25" cy="97.5" r="32.5" fill="#FF5A2D"/>
<circle cx="100.25" cy="46.5" r="32.5" fill="#FF5A2D"/>
<circle cx="100.25" cy="97.5" r="32.5" fill="#FF5A2D"/>
<path d="M76.03 65.36C76.03 64.2933 76.4033 63.3733 77.15 62.6C77.9233 61.8533 78.83 61.48 79.87 61.48C80.9367 61.48 81.8433 61.8533 82.59 62.6C83.3633 63.3733 83.75 64.2933 83.75 65.36C83.75 66.4 83.3633 67.2933 82.59 68.04C81.8433 68.8133 80.9367 69.2 79.87 69.2C79.1767 69.2 78.5367 69.0267 77.95 68.68C77.3633 68.3333 76.8967 67.8667 76.55 67.28C76.2033 66.72 76.03 66.08 76.03 65.36ZM62.27 65.36C62.27 64.2933 62.6433 63.3733 63.39 62.6C64.1633 61.8533 65.07 61.48 66.11 61.48C67.1767 61.48 68.0833 61.8533 68.83 62.6C69.6033 63.3733 69.99 64.2933 69.99 65.36C69.99 66.4 69.6033 67.2933 68.83 68.04C68.0833 68.8133 67.1767 69.2 66.11 69.2C65.4167 69.2 64.7767 69.0267 64.19 68.68C63.6033 68.3333 63.1367 67.8667 62.79 67.28C62.4433 66.72 62.27 66.08 62.27 65.36ZM62.75 79.7841C62.75 78.2107 63.11 76.7841 63.83 75.5041C64.5767 74.2241 65.5633 73.1974 66.79 72.4241C68.0433 71.6774 69.4567 71.3041 71.03 71.3041C72.2033 71.3041 73.2967 71.5574 74.31 72.0641C75.35 72.5974 76.2433 73.3041 76.99 74.1841C77.71 73.3307 78.5633 72.6507 79.55 72.1441C80.5367 71.6641 81.5767 71.4241 82.67 71.4241C84.2167 71.4241 85.59 71.7974 86.79 72.5441C88.0167 73.2907 88.9767 74.2907 89.67 75.5441C90.39 76.7974 90.75 78.1841 90.75 79.7041L90.75 91.5041L85.15 91.5041L85.15 80.7441C85.15 80.2374 85.03 79.7707 84.79 79.3441C84.55 78.9174 84.23 78.5707 83.83 78.3041C83.43 78.0641 82.9633 77.9441 82.43 77.9441C81.9233 77.9441 81.4567 78.0641 81.03 78.3041C80.63 78.5707 80.31 78.9174 80.07 79.3441C79.8567 79.7707 79.75 80.2374 79.75 80.7441L79.75 90.1441L74.15 90.1441L74.15 80.9441C74.15 80.3841 74.0167 79.8774 73.75 79.4241C73.4833 78.9707 73.1367 78.6107 72.71 78.3441C72.2833 78.0774 71.79 77.9441 71.23 77.9441C70.6967 77.9441 70.2033 78.0774 69.75 78.3441C69.3233 78.6107 68.99 78.9707 68.75 79.4241C68.51 79.8774 68.39 80.3841 68.39 80.9441L68.39 91.5041L62.75 91.5041L62.75 79.7841Z" fill="#282828"/>
</g>
</svg>
