<svg width="145" height="145" viewBox="0 0 145 145" fill="none" xmlns="http://www.w3.org/2000/svg">
<mask id="mask0_1798_467" style="mask-type:alpha" maskUnits="userSpaceOnUse" x="0" y="0" width="145" height="145">
<rect x="0.75" y="0.666504" width="144" height="144" fill="#D9D9D9"/>
</mask>
<g mask="url(#mask0_1798_467)">
<path d="M61.5143 16.8643C68.0829 10.5968 78.4171 10.5968 84.9857 16.8643L100.56 31.7245C101.657 32.7716 102.89 33.6671 104.224 34.3872L123.17 44.6069C131.161 48.9172 134.354 58.7456 130.423 66.9294L121.103 86.3333C120.446 87.7005 119.975 89.1494 119.703 90.6415L115.838 111.818C114.208 120.749 105.847 126.824 96.8493 125.614L75.515 122.746C74.0117 122.544 72.4883 122.544 70.985 122.746L49.6508 125.614C40.6527 126.824 32.2922 120.749 30.662 111.818L26.797 90.6415C26.5247 89.1494 26.0539 87.7005 25.3972 86.3333L16.0769 66.9295C12.1459 58.7456 15.3394 48.9172 23.3299 44.6069L42.2755 34.3872C43.6104 33.6671 44.843 32.7716 45.9403 31.7245L61.5143 16.8643Z" fill="#FFDA48"/>
<path d="M89.75 82.5065L75.27 82.5065C73.4033 82.5065 71.9367 81.9732 70.87 80.9065C69.8033 79.8398 69.27 78.3598 69.27 76.4665L69.27 70.5065L74.31 70.5065L74.31 74.9465C74.31 75.3198 74.4433 75.6398 74.71 75.9065C74.95 76.1732 75.27 76.3065 75.67 76.3065L89.75 76.3065L89.75 82.5065ZM76.47 65.4971C76.47 66.5638 76.0967 67.4838 75.35 68.2571C74.5767 69.0038 73.67 69.3771 72.63 69.3771C71.5633 69.3771 70.6567 69.0038 69.91 68.2571C69.1367 67.4838 68.75 66.5638 68.75 65.4971C68.75 64.4571 69.1367 63.5638 69.91 62.8171C70.6567 62.0438 71.5633 61.6571 72.63 61.6571C73.3233 61.6571 73.9633 61.8305 74.55 62.1771C75.1367 62.5238 75.6033 62.9905 75.95 63.5771C76.2967 64.1371 76.47 64.7771 76.47 65.4971ZM90.23 65.4971C90.23 66.5638 89.8567 67.4838 89.11 68.2571C88.3367 69.0038 87.43 69.3771 86.39 69.3771C85.3233 69.3771 84.4167 69.0038 83.67 68.2571C82.8967 67.4838 82.51 66.5638 82.51 65.4971C82.51 64.4571 82.8967 63.5638 83.67 62.8171C84.4167 62.0438 85.3233 61.6571 86.39 61.6571C87.0833 61.6571 87.7233 61.8305 88.31 62.1771C88.8967 62.5238 89.3633 62.9905 89.71 63.5771C90.0567 64.1371 90.23 64.7771 90.23 65.4971Z" fill="#282828"/>
</g>
</svg>
