<svg width="145" height="144" viewBox="0 0 145 144" fill="none" xmlns="http://www.w3.org/2000/svg">
<mask id="mask0_1798_462" style="mask-type:alpha" maskUnits="userSpaceOnUse" x="0" y="0" width="145" height="144">
<rect x="0.25" width="144" height="144" fill="#D9D9D9"/>
</mask>
<g mask="url(#mask0_1798_462)">
<rect x="14.25" y="34" width="114" height="90" rx="44" fill="#FF8838"/>
<rect x="8.25" y="22" width="55" height="54" rx="27" fill="#FF8838"/>
<rect x="81.25" y="22" width="55" height="54" rx="27" fill="#FF8838"/>
<path d="M75.53 64.36C75.53 63.2933 75.9033 62.3733 76.65 61.6C77.4233 60.8533 78.33 60.48 79.37 60.48C80.4367 60.48 81.3433 60.8533 82.09 61.6C82.8633 62.3733 83.25 63.2933 83.25 64.36C83.25 65.4 82.8633 66.2933 82.09 67.04C81.3433 67.8133 80.4367 68.2 79.37 68.2C78.6767 68.2 78.0367 68.0267 77.45 67.68C76.8633 67.3333 76.3967 66.8667 76.05 66.28C75.7033 65.72 75.53 65.08 75.53 64.36ZM61.77 64.36C61.77 63.2933 62.1433 62.3733 62.89 61.6C63.6633 60.8533 64.57 60.48 65.61 60.48C66.6767 60.48 67.5833 60.8533 68.33 61.6C69.1033 62.3733 69.49 63.2933 69.49 64.36C69.49 65.4 69.1033 66.2933 68.33 67.04C67.5833 67.8133 66.6767 68.2 65.61 68.2C64.9167 68.2 64.2767 68.0267 63.69 67.68C63.1033 67.3333 62.6367 66.8667 62.29 66.28C61.9433 65.72 61.77 65.08 61.77 64.36ZM61.77 79.4241C61.77 77.6107 62.2367 76.0107 63.17 74.6241C64.1033 73.2374 65.3567 72.1574 66.93 71.3841C68.53 70.6107 70.33 70.2241 72.33 70.2241C74.41 70.2241 76.2633 70.6774 77.89 71.5841C79.5433 72.4907 80.85 73.7707 81.81 75.4241C82.77 77.1041 83.25 79.0774 83.25 81.3441C83.25 83.6374 82.77 85.5841 81.81 87.1841C80.8767 88.8107 79.5833 90.0507 77.93 90.9041C76.3033 91.7841 74.4767 92.2241 72.45 92.2241L62.25 92.2241L62.25 86.1441L65.53 86.1441L65.53 85.9841C64.81 85.6107 64.1567 85.1307 63.57 84.5441C63.01 83.9574 62.57 83.2374 62.25 82.3841C61.93 81.5574 61.77 80.5707 61.77 79.4241ZM67.13 81.2641C67.13 82.1974 67.3567 83.0107 67.81 83.7041C68.29 84.4241 68.9433 84.9707 69.77 85.3441C70.5967 85.7174 71.5167 85.9041 72.53 85.9041C73.5167 85.9041 74.41 85.7174 75.21 85.3441C76.01 84.9707 76.6367 84.4241 77.09 83.7041C77.57 83.0107 77.81 82.1974 77.81 81.2641C77.81 80.3041 77.57 79.4641 77.09 78.7441C76.6367 78.0241 76.01 77.4774 75.21 77.1041C74.41 76.7307 73.5167 76.5441 72.53 76.5441C71.5167 76.5441 70.5967 76.7307 69.77 77.1041C68.9433 77.4774 68.29 78.0241 67.81 78.7441C67.3567 79.4641 67.13 80.3041 67.13 81.2641Z" fill="#282828"/>
</g>
</svg>
