<svg width="16" height="16" viewBox="0 0 16 16" fill="none" xmlns="http://www.w3.org/2000/svg">
<mask id="mask0_136_537" style="mask-type:alpha" maskUnits="userSpaceOnUse" x="0" y="0" width="16" height="16">
<rect width="16" height="16" fill="#D9D9D9"/>
</mask>
<g mask="url(#mask0_136_537)">
<path d="M7.3335 8.66667H4.00016C3.81127 8.66667 3.65294 8.60278 3.52516 8.475C3.39738 8.34722 3.3335 8.18889 3.3335 8C3.3335 7.81111 3.39738 7.65278 3.52516 7.525C3.65294 7.39722 3.81127 7.33333 4.00016 7.33333H7.3335V4C7.3335 3.81111 7.39739 3.65278 7.52516 3.525C7.65294 3.39722 7.81127 3.33333 8.00016 3.33333C8.18905 3.33333 8.34739 3.39722 8.47516 3.525C8.60294 3.65278 8.66683 3.81111 8.66683 4V7.33333H12.0002C12.1891 7.33333 12.3474 7.39722 12.4752 7.525C12.6029 7.65278 12.6668 7.81111 12.6668 8C12.6668 8.18889 12.6029 8.34722 12.4752 8.475C12.3474 8.60278 12.1891 8.66667 12.0002 8.66667H8.66683V12C8.66683 12.1889 8.60294 12.3472 8.47516 12.475C8.34739 12.6028 8.18905 12.6667 8.00016 12.6667C7.81127 12.6667 7.65294 12.6028 7.52516 12.475C7.39739 12.3472 7.3335 12.1889 7.3335 12V8.66667Z" fill="#217DFF"/>
</g>
</svg>
