<svg width="25" height="24" viewBox="0 0 25 24" fill="none" xmlns="http://www.w3.org/2000/svg">
<path d="M12.4721 22.6436C14.2144 22.6436 15.6883 21.601 16.1768 20.1661C16.3651 19.6131 15.8753 19.127 15.291 19.127L9.65317 19.127C9.06894 19.127 8.57904 19.6131 8.76735 20.1661C9.25592 21.601 10.7298 22.6436 12.4721 22.6436Z" fill="#60A5FA"/>
<path d="M12.4718 0.99707C16.9058 0.99707 20.5002 4.59153 20.5002 9.02551C20.5002 11.7897 19.1025 14.226 16.976 15.67C16.6972 15.8593 16.5158 16.1674 16.5158 16.5043V16.5043C16.5158 17.8345 15.4367 18.9129 14.1065 18.9129H10.8371C9.50691 18.9129 8.42857 17.8345 8.42857 16.5043V16.5043C8.42857 16.1674 8.24717 15.8593 7.96838 15.67C5.84156 14.2261 4.44336 11.7899 4.44336 9.02551C4.44336 4.59153 8.03781 0.99707 12.4718 0.99707Z" fill="#BFDBFE"/>
<path d="M12.4728 9.0918C13.5948 9.0918 14.5049 10.0013 14.505 11.1232C14.505 11.563 14.365 11.9696 14.1272 12.3015C13.6956 12.904 13.1557 13.5294 13.1557 14.2704V15.3472C13.1557 15.7211 12.8526 16.0242 12.4787 16.0242V16.0242C12.1048 16.0242 11.8017 15.7211 11.8017 15.3472V14.2773C11.8017 13.5353 11.2589 12.9101 10.8243 12.3087C10.5834 11.9754 10.4414 11.5662 10.4414 11.1232C10.4415 10.0013 11.3509 9.0919 12.4728 9.0918Z" fill="#EFF6FF"/>
<path d="M7.55859 18.8346C7.55859 17.9255 8.211 17.1885 9.01578 17.1885H15.9273C16.732 17.1885 17.3845 17.9255 17.3845 18.8346V18.8346C17.3845 19.7438 16.732 20.4808 15.9273 20.4808H9.01578C8.211 20.4808 7.55859 19.7438 7.55859 18.8346V18.8346Z" fill="#93C5FD"/>
</svg>
