<svg width="116" height="116" viewBox="0 0 116 116" fill="none" xmlns="http://www.w3.org/2000/svg">
<circle cx="58" cy="58" r="58" fill="#FD85FF"/>
<path d="M57.28 48.36C57.28 47.2933 57.6533 46.3733 58.4 45.6C59.1733 44.8533 60.08 44.48 61.12 44.48C62.1867 44.48 63.0933 44.8533 63.84 45.6C64.6133 46.3733 65 47.2933 65 48.36C65 49.4 64.6133 50.2933 63.84 51.04C63.0933 51.8133 62.1867 52.2 61.12 52.2C60.4267 52.2 59.7867 52.0267 59.2 51.68C58.6133 51.3333 58.1467 50.8667 57.8 50.28C57.4533 49.72 57.28 49.08 57.28 48.36ZM43.52 48.36C43.52 47.2933 43.8933 46.3733 44.64 45.6C45.4133 44.8533 46.32 44.48 47.36 44.48C48.4267 44.48 49.3333 44.8533 50.08 45.6C50.8533 46.3733 51.24 47.2933 51.24 48.36C51.24 49.4 50.8533 50.2933 50.08 51.04C49.3333 51.8133 48.4267 52.2 47.36 52.2C46.6667 52.2 46.0267 52.0267 45.44 51.68C44.8533 51.3333 44.3867 50.8667 44.04 50.28C43.6933 49.72 43.52 49.08 43.52 48.36ZM43.52 64.5441C43.52 63.3174 43.84 62.1974 44.48 61.1841C45.12 60.1707 45.9867 59.4774 47.08 59.1041L64.52 53.2641L64.52 60.0641L49.88 64.1841C49.7733 64.2374 49.6933 64.2907 49.64 64.3441C49.5867 64.4241 49.56 64.5041 49.56 64.5841C49.56 64.6907 49.5867 64.7707 49.64 64.8241C49.6933 64.9041 49.7733 64.9574 49.88 64.9841L64.52 69.1841L64.52 75.8241L47.08 69.9841C45.9867 69.6107 45.12 68.9174 44.48 67.9041C43.84 66.9174 43.52 65.7974 43.52 64.5441Z" fill="#282828"/>
</svg>
