<svg width="24" height="24" viewBox="0 0 24 24" fill="none" xmlns="http://www.w3.org/2000/svg">
<path fill-rule="evenodd" clip-rule="evenodd" d="M12.2 3C7.11877 3 3 7.11877 3 12.2C3 17.2812 7.11877 21.4 12.2 21.4C17.2812 21.4 21.4 17.2812 21.4 12.2C21.4 7.11877 17.2812 3 12.2 3ZM12.9077 6.53846C12.9077 6.35077 12.8331 6.17077 12.7004 6.03805C12.5677 5.90533 12.3877 5.83077 12.2 5.83077C12.0123 5.83077 11.8323 5.90533 11.6996 6.03805C11.5669 6.17077 11.4923 6.35077 11.4923 6.53846V12.2C11.4923 12.5906 11.8094 12.9077 12.2 12.9077H16.4462C16.6338 12.9077 16.8139 12.8331 16.9466 12.7004C17.0793 12.5677 17.1538 12.3877 17.1538 12.2C17.1538 12.0123 17.0793 11.8323 16.9466 11.6996C16.8139 11.5669 16.6338 11.4923 16.4462 11.4923H12.9077V6.53846Z" fill="currentColor"/>
</svg>
