<svg width="49" height="49" viewBox="0 0 49 49" fill="none" xmlns="http://www.w3.org/2000/svg">
<rect x="4.09912" y="4.70117" width="40" height="40" rx="12" fill="#9CA3AF"/>
<mask id="mask0_2131_489" style="mask-type:alpha" maskUnits="userSpaceOnUse" x="4" y="4" width="41" height="41">
<rect x="4.09912" y="4.70117" width="40" height="40" rx="12" fill="#D9D9D9"/>
</mask>
<g mask="url(#mask0_2131_489)">
<path d="M4.09933 24.7012C4.89571 24.9867 5.96906 24.9862 7.87887 24.9862L9.15202 24.9862C10.4644 24.9862 11.1206 24.9868 11.5767 25.0983C12.2836 25.2714 12.1042 25.1942 12.7206 25.581C13.1186 25.8309 14.3206 27.069 16.7225 29.5448C18.4328 31.3077 20.8779 32.4122 23.5937 32.4123C26.3093 32.412 28.7547 31.3077 30.4649 29.5448C32.8661 27.0696 34.0667 25.8311 34.4648 25.581C35.0813 25.1942 34.9019 25.2714 35.6088 25.0983C36.0648 24.9867 36.721 24.9862 38.0335 24.9862L40.3194 24.9862C42.2292 24.9862 43.3026 24.9866 44.099 24.7012L44.0987 50.16L4.09912 50.16L4.09933 24.7012Z" fill="#E5E7EB"/>
</g>
</svg>
