<svg width="49" height="49" viewBox="0 0 49 49" fill="none" xmlns="http://www.w3.org/2000/svg">
<path d="M42.1089 32.7877C44.4644 36.7874 41.5807 41.8324 36.9388 41.8324H12.6456C8.00362 41.8324 5.11988 36.7872 7.47562 32.7875L19.6227 12.1631C21.9434 8.22293 27.6422 8.22302 29.9627 12.1633L42.1089 32.7877Z" fill="#E5E7EB" stroke="#D1D5DB" stroke-width="5"/>
<path d="M24.7919 20.0811C26.3221 20.0811 27.5215 21.3957 27.3815 22.9195L26.9803 27.2866C26.8763 28.4175 25.9277 29.283 24.792 29.283V29.283C23.6564 29.283 22.7078 28.4176 22.6038 27.2867L22.2024 22.9196C22.0623 21.3958 23.2617 20.0811 24.7919 20.0811V20.0811Z" fill="#9CA3AF"/>
<circle cx="24.7921" cy="32.608" r="2.1393" fill="#9CA3AF"/>
</svg>
