<svg width="16" height="16" viewBox="0 0 16 16" fill="none" xmlns="http://www.w3.org/2000/svg">
<mask id="mask0_841_634" style="mask-type:alpha" maskUnits="userSpaceOnUse" x="0" y="0" width="16" height="16">
<rect width="16" height="16" fill="#D9D9D9"/>
</mask>
<g mask="url(#mask0_841_634)">
<path d="M3.59966 12.4H4.44966L10.6997 6.15L9.84966 5.3L3.59966 11.55V12.4ZM3.00266 13.6C2.83399 13.6 2.69132 13.5428 2.57466 13.4283C2.45799 13.314 2.39966 13.1722 2.39966 13.003V11.5555C2.39966 11.3963 2.42744 11.2444 2.48299 11.1C2.53855 10.9556 2.62744 10.8222 2.74966 10.7L10.6997 2.75C10.8219 2.62778 10.9543 2.53889 11.097 2.48334C11.2395 2.42778 11.3895 2.4 11.547 2.4C11.7043 2.4 11.8552 2.42778 11.9997 2.48334C12.1441 2.53889 12.2774 2.62778 12.3997 2.75L13.2497 3.6C13.3719 3.72223 13.4608 3.85556 13.5163 4C13.5719 4.14445 13.5997 4.29189 13.5997 4.44234C13.5997 4.60289 13.5718 4.75589 13.516 4.90134C13.4602 5.04678 13.3714 5.17967 13.2497 5.3L5.29966 13.25C5.17744 13.3722 5.04438 13.4611 4.90049 13.5167C4.7566 13.5722 4.60527 13.6 4.44649 13.6H3.00266ZM10.2672 5.7325L9.84966 5.3L10.6997 6.15L10.2672 5.7325Z" fill="#7C7C7C"/>
</g>
</svg>
