<svg width="16" height="16" viewBox="0 0 16 16" fill="none" xmlns="http://www.w3.org/2000/svg">
<g clip-path="url(#clip0_136_8737)">
<path fill-rule="evenodd" clip-rule="evenodd" d="M8.00644 0.228546C3.59582 0.228546 0.0302734 3.79045 0.0302734 8.19701C0.0302734 11.7194 2.31484 14.7011 5.48415 15.7563C5.8804 15.8357 6.02554 15.5849 6.02554 15.3739C6.02554 15.1892 6.01248 14.556 6.01248 13.8962C3.7937 14.3713 3.33166 12.9463 3.33166 12.9463C2.97509 12.0228 2.44676 11.7855 2.44676 11.7855C1.72056 11.2973 2.49966 11.2973 2.49966 11.2973C3.30521 11.3501 3.72791 12.1153 3.72791 12.1153C4.44089 13.3289 5.58978 12.986 6.05199 12.7749C6.11795 12.2603 6.32938 11.9041 6.55387 11.7063C4.78423 11.5216 2.92236 10.8356 2.92236 7.77477C2.92236 6.90404 3.23909 6.19166 3.74097 5.63762C3.66178 5.43977 3.3844 4.62167 3.82031 3.52671C3.82031 3.52671 4.49378 3.31558 6.01231 4.34465C6.66245 4.17023 7.33293 4.08149 8.00644 4.08075C8.67991 4.08075 9.36644 4.17319 10.0004 4.34465C11.5191 3.31558 12.1926 3.52671 12.1926 3.52671C12.6285 4.62167 12.3509 5.43977 12.2717 5.63762C12.7868 6.19166 13.0905 6.90404 13.0905 7.77477C13.0905 10.8356 11.2286 11.5083 9.44578 11.7063C9.7364 11.9569 9.98717 12.4318 9.98717 13.1838C9.98717 14.2524 9.97411 15.11 9.97411 15.3738C9.97411 15.5849 10.1194 15.8357 10.5155 15.7565C13.6848 14.7009 15.9694 11.7194 15.9694 8.19701C15.9824 3.79045 12.4038 0.228546 8.00644 0.228546Z" fill="#FBFCFE"/>
</g>
<defs>
<clipPath id="clip0_136_8737">
<rect width="16" height="16" fill="white"/>
</clipPath>
</defs>
</svg>
