<svg width="25" height="24" viewBox="0 0 25 24" fill="none" xmlns="http://www.w3.org/2000/svg">
<g clip-path="url(#clip0_2114_1059)">
<path fill-rule="evenodd" clip-rule="evenodd" d="M12.2082 0C5.56699 0 0.198242 5.40833 0.198242 12.0992C0.198242 17.4475 3.63818 21.9748 8.4103 23.5771C9.00693 23.6976 9.22548 23.3168 9.22548 22.9965C9.22548 22.716 9.20581 21.7545 9.20581 20.7527C5.86494 21.474 5.16923 19.3104 5.16923 19.3104C4.63233 17.9082 3.83682 17.5478 3.83682 17.5478C2.74335 16.8066 3.91647 16.8066 3.91647 16.8066C5.12941 16.8868 5.76587 18.0486 5.76587 18.0486C6.83942 19.8913 8.56935 19.3707 9.2653 19.0501C9.36462 18.2688 9.68297 17.728 10.021 17.4276C7.35641 17.1471 4.55293 16.1055 4.55293 11.458C4.55293 10.1359 5.02985 9.05428 5.78554 8.21304C5.66631 7.91263 5.24864 6.67043 5.90501 5.00787C5.90501 5.00787 6.91907 4.6873 9.20557 6.24981C10.1845 5.98497 11.194 5.85024 12.2082 5.84911C13.2222 5.84911 14.256 5.98948 15.2105 6.24981C17.4973 4.6873 18.5113 5.00787 18.5113 5.00787C19.1677 6.67043 18.7498 7.91263 18.6306 8.21304C19.4062 9.05428 19.8634 10.1359 19.8634 11.458C19.8634 16.1055 17.0599 17.1269 14.3754 17.4276C14.813 17.8081 15.1906 18.5292 15.1906 19.6711C15.1906 21.2936 15.171 22.5957 15.171 22.9962C15.171 23.3168 15.3897 23.6976 15.9861 23.5774C20.7582 21.9745 24.1982 17.4475 24.1982 12.0992C24.2179 5.40833 18.8294 0 12.2082 0Z" fill="white"/>
</g>
<defs>
<clipPath id="clip0_2114_1059">
<rect width="24" height="24" fill="white" transform="translate(0.198242)"/>
</clipPath>
</defs>
</svg>
