<svg width="16" height="16" viewBox="0 0 16 16" fill="none" xmlns="http://www.w3.org/2000/svg">
<path d="M7.99978 5.88899C6.85864 5.88899 5.88867 6.85896 5.88867 8.0001C5.88867 9.14125 6.85864 10.1112 7.99978 10.1112C9.14092 10.1112 10.1109 9.14125 10.1109 8.0001C10.1109 6.85896 9.14092 5.88899 7.99978 5.88899Z" fill="#FBFCFE"/>
<path d="M10.7059 1.66667H5.35135C3.27863 1.66667 1.6665 3.27879 1.6665 5.29394V10.6485C1.6665 12.7212 3.27863 14.3333 5.35135 14.3333H10.7059C12.721 14.3333 14.3332 12.7212 14.3332 10.6485V5.29394C14.3332 3.27879 12.721 1.66667 10.7059 1.66667ZM7.99984 11.3394C6.15741 11.3394 4.71802 9.84243 4.71802 8.05758C4.71802 6.27273 6.15741 4.71819 7.99984 4.71819C9.84226 4.71819 11.2817 6.21516 11.2817 8C11.2817 9.78485 9.84226 11.3394 7.99984 11.3394ZM11.3968 5.4091C10.9938 5.4091 10.6483 5.06364 10.6483 4.66061C10.6483 4.25758 10.9938 3.91213 11.3968 3.91213C11.7998 3.91213 12.1453 4.25758 12.1453 4.66061C12.1453 5.06364 11.7998 5.4091 11.3968 5.4091Z" fill="#FBFCFE"/>
</svg>
