<svg width="25" height="24" viewBox="0 0 25 24" fill="none" xmlns="http://www.w3.org/2000/svg">
<g clip-path="url(#clip0_2114_1063)">
<path d="M12.793 2.16094C15.9992 2.16094 16.3789 2.175 17.6398 2.23125C18.8117 2.28281 19.4445 2.47969 19.8664 2.64375C20.4242 2.85938 20.8273 3.12188 21.2445 3.53906C21.6664 3.96094 21.9242 4.35938 22.1398 4.91719C22.3039 5.33906 22.5008 5.97656 22.5523 7.14375C22.6086 8.40937 22.6227 8.78906 22.6227 11.9906C22.6227 15.1969 22.6086 15.5766 22.5523 16.8375C22.5008 18.0094 22.3039 18.6422 22.1398 19.0641C21.9242 19.6219 21.6617 20.025 21.2445 20.4422C20.8227 20.8641 20.4242 21.1219 19.8664 21.3375C19.4445 21.5016 18.807 21.6984 17.6398 21.75C16.3742 21.8062 15.9945 21.8203 12.793 21.8203C9.58672 21.8203 9.20703 21.8062 7.94609 21.75C6.77422 21.6984 6.14141 21.5016 5.71953 21.3375C5.16172 21.1219 4.75859 20.8594 4.34141 20.4422C3.91953 20.0203 3.66172 19.6219 3.44609 19.0641C3.28203 18.6422 3.08516 18.0047 3.03359 16.8375C2.97734 15.5719 2.96328 15.1922 2.96328 11.9906C2.96328 8.78438 2.97734 8.40469 3.03359 7.14375C3.08516 5.97187 3.28203 5.33906 3.44609 4.91719C3.66172 4.35938 3.92422 3.95625 4.34141 3.53906C4.76328 3.11719 5.16172 2.85938 5.71953 2.64375C6.14141 2.47969 6.77891 2.28281 7.94609 2.23125C9.20703 2.175 9.58672 2.16094 12.793 2.16094ZM12.793 0C9.53516 0 9.12734 0.0140625 7.84766 0.0703125C6.57266 0.126563 5.69609 0.332812 4.93672 0.628125C4.14453 0.9375 3.47422 1.34531 2.80859 2.01562C2.13828 2.68125 1.73047 3.35156 1.42109 4.13906C1.12578 4.90313 0.919531 5.775 0.863281 7.05C0.807031 8.33437 0.792969 8.74219 0.792969 12C0.792969 15.2578 0.807031 15.6656 0.863281 16.9453C0.919531 18.2203 1.12578 19.0969 1.42109 19.8563C1.73047 20.6484 2.13828 21.3188 2.80859 21.9844C3.47422 22.65 4.14453 23.0625 4.93203 23.3672C5.69609 23.6625 6.56797 23.8687 7.84297 23.925C9.12266 23.9812 9.53047 23.9953 12.7883 23.9953C16.0461 23.9953 16.4539 23.9812 17.7336 23.925C19.0086 23.8687 19.8852 23.6625 20.6445 23.3672C21.432 23.0625 22.1023 22.65 22.768 21.9844C23.4336 21.3188 23.8461 20.6484 24.1508 19.8609C24.4461 19.0969 24.6523 18.225 24.7086 16.95C24.7648 15.6703 24.7789 15.2625 24.7789 12.0047C24.7789 8.74688 24.7648 8.33906 24.7086 7.05938C24.6523 5.78438 24.4461 4.90781 24.1508 4.14844C23.8555 3.35156 23.4477 2.68125 22.7773 2.01562C22.1117 1.35 21.4414 0.9375 20.6539 0.632812C19.8898 0.3375 19.018 0.13125 17.743 0.075C16.4586 0.0140625 16.0508 0 12.793 0Z" fill="white"/>
<path d="M12.793 5.83594C9.38984 5.83594 6.62891 8.59688 6.62891 12C6.62891 15.4031 9.38984 18.1641 12.793 18.1641C16.1961 18.1641 18.957 15.4031 18.957 12C18.957 8.59688 16.1961 5.83594 12.793 5.83594ZM12.793 15.9984C10.5852 15.9984 8.79453 14.2078 8.79453 12C8.79453 9.79219 10.5852 8.00156 12.793 8.00156C15.0008 8.00156 16.7914 9.79219 16.7914 12C16.7914 14.2078 15.0008 15.9984 12.793 15.9984Z" fill="white"/>
<path d="M20.6398 5.59238C20.6398 6.38926 19.993 7.03145 19.2008 7.03145C18.4039 7.03145 17.7617 6.38457 17.7617 5.59238C17.7617 4.79551 18.4086 4.15332 19.2008 4.15332C19.993 4.15332 20.6398 4.8002 20.6398 5.59238Z" fill="white"/>
</g>
<defs>
<clipPath id="clip0_2114_1063">
<rect width="24" height="24" fill="white" transform="translate(0.792969)"/>
</clipPath>
</defs>
</svg>
