<svg width="24" height="24" viewBox="0 0 24 24" fill="none" xmlns="http://www.w3.org/2000/svg">
<path fill-rule="evenodd" clip-rule="evenodd" d="M11.79 21.351L11.86 21.391L11.888 21.407C11.999 21.467 12.1233 21.4985 12.2495 21.4985C12.3757 21.4985 12.5 21.467 12.611 21.407L12.639 21.392L12.71 21.351C13.1011 21.1191 13.4828 20.8716 13.854 20.609C14.8151 19.9305 15.713 19.1667 16.537 18.327C18.481 16.337 20.5 14.347 20.5 10.5C20.5 8.31196 19.6308 6.21354 18.0836 4.66637C16.5365 3.11919 14.438 2.25 12.25 2.25C10.062 2.25 7.96354 3.11919 6.41637 4.66637C4.86919 6.21354 4 8.31196 4 10.5C4 14.346 6.02 16.337 7.963 18.327C8.78664 19.1667 9.68427 19.9304 10.645 20.609C11.0166 20.8716 11.3985 21.1191 11.79 21.351ZM12.25 13.5C13.0456 13.5 13.8087 13.1839 14.3713 12.6213C14.9339 12.0587 15.25 11.2956 15.25 10.5C15.25 9.70435 14.9339 8.94129 14.3713 8.37868C13.8087 7.81607 13.0456 7.5 12.25 7.5C11.4544 7.5 10.6913 7.81607 10.1287 8.37868C9.56607 8.94129 9.25 9.70435 9.25 10.5C9.25 11.2956 9.56607 12.0587 10.1287 12.6213C10.6913 13.1839 11.4544 13.5 12.25 13.5Z" fill="currentColor"/>
</svg>
