<svg width="48" height="49" viewBox="0 0 48 49" fill="none" xmlns="http://www.w3.org/2000/svg">
<path d="M14 23.7012V13.7012C14 8.73061 18.2533 4.70117 23.5 4.70117C28.7467 4.70117 33 8.73061 33 13.7012V23.7012" stroke="#9CA3AF" stroke-width="4"/>
<path d="M4 29.2012C4 22.2976 9.59644 16.7012 16.5 16.7012H31.5C38.4036 16.7012 44 22.2976 44 29.2012C44 38.8662 36.165 46.7012 26.5 46.7012H21.5C11.835 46.7012 4 38.8662 4 29.2012Z" fill="#E5E7EB"/>
<path d="M24 24.7012C26.2091 24.7012 28 26.492 28 28.7012C28 29.5572 27.7309 30.3501 27.2729 31.0004C26.7529 31.7387 26.25 32.5481 26.25 33.4512C26.25 34.6938 25.2426 35.7012 24 35.7012C22.7574 35.7012 21.75 34.6938 21.75 33.4512C21.75 32.5481 21.2471 31.7387 20.7271 31.0004C20.2691 30.3501 20 29.5572 20 28.7012C20 26.492 21.7909 24.7012 24 24.7012Z" fill="#9CA3AF"/>
</svg>
