<svg width="25" height="24" viewBox="0 0 25 24" fill="none" xmlns="http://www.w3.org/2000/svg">
<g clip-path="url(#clip0_2114_1073)">
<path d="M22.4489 0.753906H3.28304C2.36494 0.753906 1.62256 1.47872 1.62256 2.37485V21.6198C1.62256 22.5159 2.36494 23.2451 3.28304 23.2451H22.4489C23.367 23.2451 24.1138 22.5159 24.1138 21.6242V2.37485C24.1138 1.47872 23.367 0.753906 22.4489 0.753906ZM8.29524 19.9198H4.95671V9.18372H8.29524V19.9198ZM6.62597 7.72091C5.55413 7.72091 4.68874 6.85553 4.68874 5.78807C4.68874 4.72062 5.55413 3.85523 6.62597 3.85523C7.69343 3.85523 8.55881 4.72062 8.55881 5.78807C8.55881 6.85113 7.69343 7.72091 6.62597 7.72091ZM20.7884 19.9198H17.4543V14.7011C17.4543 13.4579 17.4323 11.8545 15.7191 11.8545C13.9839 11.8545 13.7204 13.2119 13.7204 14.6132V19.9198H10.3906V9.18372H13.5886V10.6509H13.6325C14.0762 9.8075 15.1656 8.91576 16.7866 8.91576C20.1646 8.91576 20.7884 11.1385 20.7884 14.029V19.9198V19.9198Z" fill="white"/>
</g>
<defs>
<clipPath id="clip0_2114_1073">
<rect width="24" height="24" fill="white" transform="translate(0.868164)"/>
</clipPath>
</defs>
</svg>
