<svg width="68" height="75" viewBox="0 0 68 75" fill="none" xmlns="http://www.w3.org/2000/svg">
<path d="M17 35.3V18.3C17 9.85004 24.2306 3 33.15 3C42.0694 3 49.3 9.85004 49.3 18.3V35.3" stroke="#9CA3AF" stroke-width="6"/>
<path d="M0 43.4004C0 32.3547 8.95431 23.4004 20 23.4004H48C59.0457 23.4004 68 32.3547 68 43.4004V46.4004C68 61.8644 55.464 74.4004 40 74.4004H28C12.536 74.4004 0 61.8644 0 46.4004V43.4004Z" fill="#E5E7EB"/>
<path d="M34 37C37.7554 37 40.7996 40.0444 40.7998 43.7998C40.7998 45.5668 40.1254 47.1757 39.0203 48.3845C38.351 49.1166 37.8252 50.0144 37.8252 51.0063V52.7002C37.8252 54.357 36.482 55.7001 34.8252 55.7002H33.1748C31.518 55.7001 30.1748 54.357 30.1748 52.7002V51.0063C30.1748 50.0144 29.649 49.1166 28.9797 48.3845C27.8746 47.1757 27.2002 45.5668 27.2002 43.7998C27.2004 40.0444 30.2446 37 34 37Z" fill="#9CA3AF"/>
</svg>
