<svg width="24" height="24" viewBox="0 0 24 24" fill="none" xmlns="http://www.w3.org/2000/svg">
<circle cx="12" cy="12" r="10" fill="currentColor" opacity="0.2"/>
<circle cx="12" cy="12" r="7" fill="currentColor" opacity="0.3"/>
<path d="M9.09 9C9.3251 8.33167 9.78915 7.76811 10.4 7.40913C11.0108 7.05016 11.7289 6.91894 12.4272 7.03871C13.1255 7.15849 13.7588 7.52152 14.2151 8.06353C14.6713 8.60553 14.9211 9.29152 14.92 10C14.92 12 11.92 13 11.92 13" stroke="currentColor" stroke-width="2" stroke-linecap="round" stroke-linejoin="round" opacity="0.9"/>
<path d="M10 9.5C10.5 8.5 11.5 8 12.5 8C13.5 8 14.3 8.7 14.5 9.7" stroke="currentColor" stroke-width="1.5" stroke-linecap="round" opacity="0.5"/>
<circle cx="12" cy="17" r="1.5" fill="currentColor"/>
<circle cx="12" cy="17" r="1" fill="currentColor" opacity="0.6"/>
</svg>
