<svg width="25" height="24" viewBox="0 0 25 24" fill="none" xmlns="http://www.w3.org/2000/svg">
<rect x="3.53643" y="2.575" width="7.99842" height="7.99842" rx="1.3" fill="#60A5FA" stroke="#93C5FD" stroke-width="1.4"/>
<rect x="3.53643" y="13.4256" width="7.99842" height="7.99842" rx="1.3" fill="#60A5FA" stroke="#93C5FD" stroke-width="1.4"/>
<rect x="14.1048" y="2.575" width="7.99842" height="7.99842" rx="1.3" fill="#60A5FA" stroke="#93C5FD" stroke-width="1.4"/>
<rect x="13.6641" y="12.9844" width="8.8802" height="8.8802" rx="2" fill="#BFDBFE"/>
<path d="M14.3608 15.3271V15.3271C14.3608 14.3989 15.1133 13.6465 16.0415 13.6465V13.6465" stroke="#60A5FA" stroke-width="1.5" stroke-linecap="round"/>
<path d="M14.3608 19.5655V19.5655C14.3608 20.4937 15.1133 21.2461 16.0415 21.2461V21.2461" stroke="#60A5FA" stroke-width="1.5" stroke-linecap="round"/>
<path d="M21.8999 15.3271V15.3271C21.8999 14.3989 21.1475 13.6465 20.2193 13.6465V13.6465" stroke="#60A5FA" stroke-width="1.5" stroke-linecap="round"/>
<path d="M21.8999 19.5655V19.5655C21.8999 20.4937 21.1475 21.2461 20.2193 21.2461V21.2461" stroke="#60A5FA" stroke-width="1.5" stroke-linecap="round"/>
<circle cx="18.104" cy="17.4248" r="0.590832" stroke="#60A5FA"/>
</svg>
