<svg width="25" height="25" viewBox="0 0 25 25" fill="none" xmlns="http://www.w3.org/2000/svg">
<rect x="3.53643" y="3.32305" width="7.99842" height="7.99842" rx="1.3" fill="#D1D5DB" stroke="#E5E7EB" stroke-width="1.4"/>
<rect x="3.53643" y="14.1736" width="7.99842" height="7.99842" rx="1.3" fill="#D1D5DB" stroke="#E5E7EB" stroke-width="1.4"/>
<rect x="14.1048" y="3.32305" width="7.99842" height="7.99842" rx="1.3" fill="#D1D5DB" stroke="#E5E7EB" stroke-width="1.4"/>
<rect x="13.6641" y="13.7324" width="8.8802" height="8.8802" rx="2" fill="#F3F4F6"/>
<path d="M14.3608 16.0752V16.0752C14.3608 15.147 15.1133 14.3945 16.0415 14.3945V14.3945" stroke="#D1D5DB" stroke-width="1.5" stroke-linecap="round"/>
<path d="M14.3608 20.3135V20.3135C14.3608 21.2417 15.1133 21.9941 16.0415 21.9941V21.9941" stroke="#D1D5DB" stroke-width="1.5" stroke-linecap="round"/>
<path d="M21.8999 16.0752V16.0752C21.8999 15.147 21.1475 14.3945 20.2193 14.3945V14.3945" stroke="#D1D5DB" stroke-width="1.5" stroke-linecap="round"/>
<path d="M21.8999 20.3135V20.3135C21.8999 21.2417 21.1475 21.9941 20.2193 21.9941V21.9941" stroke="#D1D5DB" stroke-width="1.5" stroke-linecap="round"/>
<circle cx="18.104" cy="18.1729" r="0.590832" stroke="#D1D5DB"/>
</svg>
