<svg width="25" height="25" viewBox="0 0 25 25" fill="none" xmlns="http://www.w3.org/2000/svg">
<mask id="mask0_1610_406" style="mask-type:alpha" maskUnits="userSpaceOnUse" x="0" y="0" width="25" height="25">
<rect x="0.570312" y="0.820923" width="24" height="24" fill="currentColor"/>
</mask>
<g mask="url(#mask0_1610_406)">
<path d="M12.5703 22.8209C12.0203 22.8209 11.5495 22.6251 11.1578 22.2334C10.7661 21.8418 10.5703 21.3709 10.5703 20.8209V12.8209C10.5703 12.2709 10.7661 11.8001 11.1578 11.4084C11.5495 11.0168 12.0203 10.8209 12.5703 10.8209H20.5703C21.1203 10.8209 21.5911 11.0168 21.9828 11.4084C22.3745 11.8001 22.5703 12.2709 22.5703 12.8209V20.8209C22.5703 21.3709 22.3745 21.8418 21.9828 22.2334C21.5911 22.6251 21.1203 22.8209 20.5703 22.8209H12.5703ZM6.57031 17.8209V8.82092C6.57031 8.27092 6.76615 7.80009 7.15781 7.40842C7.54948 7.01676 8.02031 6.82092 8.57031 6.82092H17.5703C17.8536 6.82092 18.0911 6.91676 18.2828 7.10842C18.4745 7.30009 18.5703 7.53759 18.5703 7.82092C18.5703 8.10426 18.4745 8.34176 18.2828 8.53342C18.0911 8.72509 17.8536 8.82092 17.5703 8.82092H8.57031V17.8209C8.57031 18.1043 8.47448 18.3418 8.28281 18.5334C8.09115 18.7251 7.85365 18.8209 7.57031 18.8209C7.28698 18.8209 7.04948 18.7251 6.85781 18.5334C6.66615 18.3418 6.57031 18.1043 6.57031 17.8209ZM2.57031 13.8209V4.82092C2.57031 4.27092 2.76615 3.80009 3.15781 3.40842C3.54948 3.01676 4.02031 2.82092 4.57031 2.82092H13.5703C13.8536 2.82092 14.0911 2.91676 14.2828 3.10842C14.4745 3.30009 14.5703 3.53759 14.5703 3.82092C14.5703 4.10426 14.4745 4.34176 14.2828 4.53342C14.0911 4.72509 13.8536 4.82092 13.5703 4.82092H4.57031V13.8209C4.57031 14.1043 4.47448 14.3418 4.28281 14.5334C4.09115 14.7251 3.85365 14.8209 3.57031 14.8209C3.28698 14.8209 3.04948 14.7251 2.85781 14.5334C2.66615 14.3418 2.57031 14.1043 2.57031 13.8209Z" fill="currentColor"/>
</g>
</svg>
