<svg width="25" height="24" viewBox="0 0 25 24" fill="none" xmlns="http://www.w3.org/2000/svg">
<circle cx="8.08399" cy="8.16651" r="3.6294" fill="currentColor" opacity="0.3"/>
<path d="M1.87646 18.954C1.87646 15.4133 4.74676 12.543 8.28745 12.543V12.543C11.8281 12.543 14.6984 15.4133 14.6984 18.954V19.3463C14.6984 19.9726 14.1908 20.4802 13.5645 20.4802H3.01036C2.38413 20.4802 1.87646 19.9726 1.87646 19.3463V18.954Z" fill="currentColor" opacity="0.5"/>
<circle cx="17.3101" cy="8.16651" r="3.6294" fill="currentColor" opacity="0.6"/>
<path d="M11.103 18.954C11.103 15.4133 13.9733 12.543 17.514 12.543V12.543C21.0547 12.543 23.925 15.4133 23.925 18.954V19.3463C23.925 19.9726 23.4173 20.4802 22.7911 20.4802H12.2369C11.6107 20.4802 11.103 19.9726 11.103 19.3463V18.954Z" fill="currentColor"/>
</svg>
