<svg width="25" height="24" viewBox="0 0 25 24" fill="none" xmlns="http://www.w3.org/2000/svg">
<rect width="15.6095" height="14.2977" rx="3.5" transform="matrix(0.268892 -0.96317 -0.96317 -0.268892 19.5127 21.3818)" fill="#60A5FA"/>
<rect width="15.6095" height="14.2977" rx="3.5" transform="matrix(0.0838792 -0.996476 -0.996476 -0.0838792 19.189 17.8223)" fill="#93C5FD"/>
<rect width="15.6095" height="14.2977" rx="3.5" transform="matrix(-0.153095 -0.988212 -0.988212 0.153095 18.2017 18.0674)" fill="#BFDBFE"/>
<mask id="mask0_2112_828" style="mask-type:alpha" maskUnits="userSpaceOnUse" x="3" y="3" width="19" height="20">
<rect x="3.06201" y="3.74219" width="18.6656" height="18.6656" rx="4" fill="#D9D9D9"/>
</mask>
<g mask="url(#mask0_2112_828)">
<path d="M2.11621 13.415C2.52549 13.5618 3.0771 13.5615 4.05859 13.5615L4.71289 13.5615C5.38736 13.5615 5.7246 13.5618 5.95899 13.6191C6.32226 13.7081 6.23008 13.6684 6.54688 13.8672C6.75142 13.9956 7.36916 14.6319 8.60352 15.9043C9.48249 16.8103 10.7391 17.3779 12.1348 17.3779C13.5304 17.3778 14.7871 16.8103 15.666 15.9043C16.9001 14.6322 17.5171 13.9957 17.7217 13.8672C18.0385 13.6684 17.9463 13.7081 18.3096 13.6191C18.5439 13.5618 18.8812 13.5615 19.5557 13.5615L20.7305 13.5615C21.712 13.5615 22.2636 13.5617 22.6729 13.415L22.6729 22.4092L2.11621 22.4092L2.11621 13.415Z" fill="#3B82F6"/>
</g>
</svg>
