<svg width="25" height="25" viewBox="0 0 25 25" fill="none" xmlns="http://www.w3.org/2000/svg">
<rect width="15.6095" height="14.2977" rx="3.5" transform="matrix(0.268892 -0.96317 -0.96317 -0.268892 19.5127 22.1299)" fill="#D1D5DB"/>
<rect width="15.6095" height="14.2977" rx="3.5" transform="matrix(0.0838792 -0.996476 -0.996476 -0.0838792 19.189 18.5703)" fill="#E5E7EB"/>
<rect width="15.6095" height="14.2977" rx="3.5" transform="matrix(-0.153095 -0.988212 -0.988212 0.153095 18.2017 18.8154)" fill="#F3F4F6"/>
<mask id="mask0_2112_844" style="mask-type:alpha" maskUnits="userSpaceOnUse" x="3" y="4" width="19" height="20">
<rect x="3.06201" y="4.49023" width="18.6656" height="18.6656" rx="4" fill="#D9D9D9"/>
</mask>
<g mask="url(#mask0_2112_844)">
<path d="M2.11621 14.1631C2.52549 14.3098 3.0771 14.3096 4.05859 14.3096L4.71289 14.3096C5.38736 14.3096 5.7246 14.3099 5.95899 14.3672C6.32226 14.4562 6.23008 14.4164 6.54688 14.6152C6.75142 14.7437 7.36916 15.38 8.60352 16.6523C9.48249 17.5583 10.7391 18.126 12.1348 18.126C13.5304 18.1259 14.7871 17.5583 15.666 16.6523C16.9001 15.3803 17.5171 14.7438 17.7217 14.6152C18.0385 14.4164 17.9463 14.4562 18.3096 14.3672C18.5439 14.3098 18.8812 14.3096 19.5557 14.3096L20.7305 14.3096C21.712 14.3096 22.2636 14.3098 22.6729 14.1631L22.6729 23.1572L2.11621 23.1572L2.11621 14.1631Z" fill="#9CA3AF"/>
</g>
</svg>
